
<svg width="16" height="16" viewBox="0 0 16 16" fill="none" xmlns="http://www.w3.org/2000/svg">
<g clip-path="url(#clip0_10034_256)">
<path d="M7.99935 4.6665C8.36754 4.6665 8.66602 4.96498 8.66602 5.33317V7.33317H10.666C11.0342 7.33317 11.3327 7.63165 11.3327 7.99984C11.3327 8.36803 11.0342 8.6665 10.666 8.6665H8.66602V10.6665C8.66602 11.0347 8.36754 11.3332 7.99935 11.3332C7.63116 11.3332 7.33268 11.0347 7.33268 10.6665V8.6665H5.33268C4.96449 8.6665 4.66602 8.36803 4.66602 7.99984C4.66602 7.63165 4.96449 7.33317 5.33268 7.33317H7.33268V5.33317C7.33268 4.96498 7.63116 4.6665 7.99935 4.6665Z" fill="black"/>
<path fill-rule="evenodd" clip-rule="evenodd" d="M0.666016 7.99984C0.666016 3.94975 3.94926 0.666504 7.99935 0.666504C12.0494 0.666504 15.3327 3.94975 15.3327 7.99984C15.3327 12.0499 12.0494 15.3332 7.99935 15.3332C3.94926 15.3332 0.666016 12.0499 0.666016 7.99984ZM7.99935 1.99984C4.68564 1.99984 1.99935 4.68613 1.99935 7.99984C1.99935 11.3135 4.68564 13.9998 7.99935 13.9998C11.3131 13.9998 13.9993 11.3135 13.9993 7.99984C13.9993 4.68613 11.3131 1.99984 7.99935 1.99984Z" fill="black"/>
</g>
<defs>
<clipPath id="clip0_10034_256">
<rect width="16" height="16" fill="white"/>
</clipPath>
</defs>
</svg>
