
<svg width="16" height="16" viewBox="0 0 16 16" fill="none" xmlns="http://www.w3.org/2000/svg">
<g clip-path="url(#clip0_10034_18)">
<path fill-rule="evenodd" clip-rule="evenodd" d="M7.99936 5.99984C6.89479 5.99984 5.99936 6.89527 5.99936 7.99984C5.99936 9.10441 6.89479 9.99984 7.99936 9.99984C9.10393 9.99984 9.99936 9.10441 9.99936 7.99984C9.99936 6.89527 9.10393 5.99984 7.99936 5.99984ZM4.66602 7.99984C4.66602 6.15889 6.15841 4.66651 7.99936 4.66651C9.84031 4.66651 11.3327 6.15889 11.3327 7.99984C11.3327 9.84079 9.84031 11.3332 7.99936 11.3332C6.15841 11.3332 4.66602 9.84079 4.66602 7.99984Z" fill="#171717"/>
<path fill-rule="evenodd" clip-rule="evenodd" d="M4.89132 1.35771C6.38759 0.657568 8.07643 0.483138 9.68421 0.862684C11.292 1.24223 12.7245 2.15352 13.7497 3.4489C14.7749 4.74428 15.3327 6.34787 15.3327 7.99984V8.66651C15.3327 9.37376 15.0517 10.052 14.5516 10.5521C14.0515 11.0522 13.3733 11.3332 12.666 11.3332C11.9588 11.3332 11.2805 11.0522 10.7804 10.5521C10.2803 10.052 9.99936 9.37376 9.99936 8.66651V5.33318C9.99936 4.96499 10.2978 4.66651 10.666 4.66651C11.0342 4.66651 11.3327 4.96499 11.3327 5.33318V8.66651C11.3327 9.02013 11.4732 9.35927 11.7232 9.60932C11.9733 9.85937 12.3124 9.99985 12.666 9.99985C13.0196 9.99985 13.3588 9.85937 13.6088 9.60932C13.8589 9.35927 13.9994 9.02013 13.9994 8.66651V7.99984C13.9994 6.64823 13.543 5.3362 12.7042 4.27634C11.8654 3.21649 10.6933 2.47089 9.37788 2.16035C8.06242 1.84981 6.68064 1.99253 5.45642 2.56537C4.2322 3.13822 3.23726 4.10764 2.63279 5.31656C2.02833 6.52549 1.84976 7.90309 2.12602 9.22617C2.40227 10.5493 3.11717 11.7403 4.15487 12.6064C5.19258 13.4724 6.4923 13.9627 7.84346 13.9978C9.19463 14.0329 10.5181 13.6108 11.5994 12.7998C11.8939 12.5789 12.3118 12.6386 12.5327 12.9332C12.7536 13.2277 12.6939 13.6456 12.3994 13.8665C11.0778 14.8577 9.46024 15.3736 7.80882 15.3307C6.1574 15.2878 4.56885 14.6885 3.30054 13.63C2.03224 12.5715 1.15848 11.1158 0.820832 9.49869C0.483187 7.88159 0.701439 6.19785 1.44023 4.72028C2.17901 3.2427 3.39505 2.05786 4.89132 1.35771Z" fill="#171717"/>
</g>
<defs>
<clipPath id="clip0_10034_18">
<rect width="16" height="16" fill="white"/>
</clipPath>
</defs>
</svg>

