
<svg width="16" height="16" viewBox="0 0 16 16" fill="none" xmlns="http://www.w3.org/2000/svg">
<path d="M3.98435 13.8169L0.793896 8.29076C0.710121 8.1457 0.666016 7.98115 0.666016 7.81364C0.666016 7.64613 0.710121 7.48157 0.793896 7.33651L3.98435 1.81062C4.06797 1.66575 4.18821 1.5454 4.33301 1.46166C4.47781 1.37792 4.64208 1.33372 4.80935 1.3335H11.1932C11.5324 1.3351 11.8452 1.51683 12.0148 1.81062L15.2048 7.33651C15.2886 7.48157 15.3327 7.64613 15.3327 7.81364C15.3327 7.98115 15.2886 8.1457 15.2048 8.29076L12.0143 13.8169C11.9307 13.9618 11.8105 14.0821 11.6657 14.1658C11.5209 14.2496 11.3566 14.2938 11.1893 14.294H4.80706C4.64008 14.2934 4.47617 14.249 4.33169 14.1653C4.18722 14.0816 4.06721 13.9615 3.98366 13.8169H3.98435Z" fill="#4386FA"/>
<path opacity="0.1" d="M9.99266 6.03418C9.99266 6.03418 10.8795 8.16153 9.67045 9.36741C8.46137 10.5733 6.25977 9.80145 6.25977 9.80145L10.7381 14.2922H11.1928C11.3601 14.292 11.5243 14.2478 11.6691 14.164C11.8139 14.0803 11.9342 13.9599 12.0178 13.8151L14.1298 10.158L9.99266 6.03418Z" fill="black"/>
<path d="M11.0384 10.3868L10.0606 9.4067C10.0499 9.39579 10.0377 9.38652 10.0244 9.3792C10.4403 8.84344 10.6363 8.16925 10.5725 7.494C10.5087 6.81874 10.1898 6.19322 9.68084 5.74488C9.17188 5.29654 8.51114 5.05912 7.83322 5.08098C7.15531 5.10283 6.51123 5.38233 6.03221 5.86253C5.5532 6.34272 5.27528 6.98749 5.25509 7.66545C5.2349 8.34342 5.47395 9.00358 5.92354 9.51143C6.37312 10.0193 6.99942 10.3366 7.67484 10.3988C8.35025 10.461 9.02395 10.2633 9.55869 9.84601C9.56566 9.85863 9.57438 9.8702 9.58458 9.88039L10.5647 10.8605C10.5935 10.8893 10.6325 10.9054 10.6732 10.9054C10.7139 10.9054 10.753 10.8893 10.7817 10.8605L11.0384 10.6039C11.0672 10.5751 11.0833 10.5361 11.0833 10.4954C11.0833 10.4547 11.0672 10.4156 11.0384 10.3868ZM7.91556 9.75297C7.65224 9.753 7.39148 9.70117 7.14819 9.60042C6.90489 9.49968 6.68382 9.352 6.4976 9.16582C6.31138 8.97964 6.16365 8.75861 6.06285 8.51534C5.96206 8.27207 5.91016 8.01132 5.91013 7.748C5.9101 7.48467 5.96194 7.22391 6.06268 6.98062C6.16342 6.73732 6.3111 6.51626 6.49728 6.33003C6.68346 6.14381 6.90449 5.99608 7.14776 5.89529C7.39104 5.79449 7.65178 5.74259 7.91511 5.74256C8.44692 5.7425 8.95698 5.9537 9.33307 6.32971C9.70916 6.70572 9.92048 7.21572 9.92054 7.74754C9.9206 8.27935 9.7094 8.78941 9.33339 9.1655C8.95739 9.54159 8.44738 9.75291 7.91556 9.75297ZM6.63384 7.64098V8.46964C6.76146 8.69503 6.94627 8.88276 7.16963 9.01391V7.63593L6.63384 7.64098ZM7.63644 6.95393V9.19335C7.81355 9.22599 7.99513 9.22599 8.17223 9.19335V6.95393H7.63644ZM9.18652 8.46781V7.97693H8.65119V9.00818C8.87431 8.87744 9.0591 8.69029 9.18698 8.46552L9.18652 8.46781Z" fill="white"/>
</svg>

