
<svg width="16" height="16" viewBox="0 0 16 16" fill="none" xmlns="http://www.w3.org/2000/svg">
<g clip-path="url(#clip0_13822_705)">
<path fill-rule="evenodd" clip-rule="evenodd" d="M7.70135 0.738351C7.88904 0.644508 8.10995 0.644508 8.29764 0.738351L14.9643 4.07168C15.1902 4.18461 15.3328 4.41545 15.3328 4.66797C15.3328 4.92048 15.1902 5.15133 14.9643 5.26425L8.29764 8.59759C8.10995 8.69143 7.88904 8.69143 7.70135 8.59759L1.03469 5.26425C0.80883 5.15133 0.666162 4.92048 0.666162 4.66797C0.666162 4.41545 0.80883 4.18461 1.03469 4.07168L7.70135 0.738351ZM2.82354 4.66797L7.99949 7.25595L13.1754 4.66797L7.99949 2.07999L2.82354 4.66797Z" fill="#525252"/>
<path fill-rule="evenodd" clip-rule="evenodd" d="M0.736544 11.0365C0.901203 10.7072 1.30165 10.5737 1.63097 10.7383L7.99949 13.9226L14.368 10.7383C14.6973 10.5737 15.0978 10.7072 15.2624 11.0365C15.4271 11.3658 15.2936 11.7663 14.9643 11.9309L8.29764 15.2643C8.10995 15.3581 7.88904 15.3581 7.70135 15.2643L1.03469 11.9309C0.705367 11.7663 0.571884 11.3658 0.736544 11.0365Z" fill="#525252"/>
<path fill-rule="evenodd" clip-rule="evenodd" d="M0.736544 7.70316C0.901203 7.37384 1.30165 7.24036 1.63097 7.40502L7.99949 10.5893L14.368 7.40502C14.6973 7.24036 15.0978 7.37384 15.2624 7.70316C15.4271 8.03248 15.2936 8.43293 14.9643 8.59759L8.29764 11.9309C8.10995 12.0248 7.88904 12.0248 7.70135 11.9309L1.03469 8.59759C0.705367 8.43293 0.571884 8.03248 0.736544 7.70316Z" fill="#525252"/>
</g>
<defs>
<clipPath id="clip0_13822_705">
<rect width="16" height="16" fill="white"/>
</clipPath>
</defs>
</svg>
