
<svg width="16" height="17" viewBox="0 0 16 17" fill="none" xmlns="http://www.w3.org/2000/svg">
<path d="M8.00018 3.14216C9.50241 3.14216 10.5157 3.79105 11.0935 4.33327L13.3513 2.12883C11.9646 0.839939 10.1602 0.0488281 8.00018 0.0488281C4.87129 0.0488281 2.16907 1.84438 0.853516 4.45772L3.44018 6.46661C4.08907 4.53772 5.88463 3.14216 8.00018 3.14216Z" fill="#EA4335"/>
<path d="M15.68 8.22638C15.68 7.5686 15.6267 7.0886 15.5111 6.59082H8V9.55971H12.4089C12.32 10.2975 11.84 11.4086 10.7733 12.1553L13.2978 14.1108C14.8089 12.7153 15.68 10.6619 15.68 8.22638Z" fill="#4285F4"/>
<path d="M3.44889 9.63134C3.28 9.13356 3.18222 8.60023 3.18222 8.04912C3.18222 7.49801 3.28 6.96467 3.44 6.4669L0.853333 4.45801C0.311111 5.54245 0 6.76023 0 8.04912C0 9.33801 0.311111 10.5558 0.853333 11.6402L3.44889 9.63134Z" fill="#FBBC05"/>
<path d="M8.00106 16.0486C10.1611 16.0486 11.9744 15.3375 13.2988 14.1109L10.7744 12.1553C10.0988 12.6264 9.19217 12.9553 8.00106 12.9553C5.8855 12.9553 4.08995 11.5597 3.44995 9.63086L0.863281 11.6397C2.17884 14.2531 4.87217 16.0486 8.00106 16.0486Z" fill="#34A853"/>
</svg>
