<svg width="16" height="16" viewBox="0 0 16 16" fill="none" xmlns="http://www.w3.org/2000/svg">
<path fill-rule="evenodd" clip-rule="evenodd" d="M3.33398 4.66683C3.15717 4.66683 2.9876 4.73707 2.86258 4.86209C2.73756 4.98712 2.66732 5.15669 2.66732 5.3335V12.6668C2.66732 12.8436 2.73756 13.0132 2.86258 13.1382C2.9876 13.2633 3.15717 13.3335 3.33398 13.3335H10.6673C10.8441 13.3335 11.0137 13.2633 11.1387 13.1382C11.2637 13.0132 11.334 12.8436 11.334 12.6668V8.66683C11.334 8.29864 11.6325 8.00016 12.0007 8.00016C12.3688 8.00016 12.6673 8.29864 12.6673 8.66683V12.6668C12.6673 13.1973 12.4566 13.706 12.0815 14.081C11.7065 14.4561 11.1978 14.6668 10.6673 14.6668H3.33398C2.80355 14.6668 2.29484 14.4561 1.91977 14.081C1.5447 13.706 1.33398 13.1973 1.33398 12.6668V5.3335C1.33398 4.80306 1.5447 4.29436 1.91977 3.91928C2.29484 3.54421 2.80355 3.3335 3.33398 3.3335H7.33398C7.70217 3.3335 8.00065 3.63197 8.00065 4.00016C8.00065 4.36835 7.70217 4.66683 7.33398 4.66683H3.33398Z" fill="black"/>
<path fill-rule="evenodd" clip-rule="evenodd" d="M9.33398 2.00016C9.33398 1.63197 9.63246 1.3335 10.0007 1.3335H14.0007C14.3688 1.3335 14.6673 1.63197 14.6673 2.00016V6.00016C14.6673 6.36835 14.3688 6.66683 14.0007 6.66683C13.6325 6.66683 13.334 6.36835 13.334 6.00016V2.66683H10.0007C9.63246 2.66683 9.33398 2.36835 9.33398 2.00016Z" fill="black"/>
<path fill-rule="evenodd" clip-rule="evenodd" d="M14.4721 1.52876C14.7324 1.78911 14.7324 2.21122 14.4721 2.47157L7.13872 9.8049C6.87837 10.0653 6.45626 10.0653 6.19591 9.8049C5.93556 9.54455 5.93556 9.12244 6.19591 8.86209L13.5292 1.52876C13.7896 1.26841 14.2117 1.26841 14.4721 1.52876Z" fill="black"/>
</svg>
