
<svg width="16" height="16" viewBox="0 0 16 16" fill="none" xmlns="http://www.w3.org/2000/svg">
<path fill-rule="evenodd" clip-rule="evenodd" d="M7.99935 2.6665C8.36754 2.6665 8.66602 2.96498 8.66602 3.33317V12.6665C8.66602 13.0347 8.36754 13.3332 7.99935 13.3332C7.63116 13.3332 7.33268 13.0347 7.33268 12.6665V3.33317C7.33268 2.96498 7.63116 2.6665 7.99935 2.6665Z" fill="currentColor"/>
<path fill-rule="evenodd" clip-rule="evenodd" d="M7.52794 2.86177C7.78829 2.60142 8.2104 2.60142 8.47075 2.86177L13.1374 7.52843C13.3978 7.78878 13.3978 8.21089 13.1374 8.47124C12.8771 8.73159 12.455 8.73159 12.1946 8.47124L7.99935 4.27598L3.80409 8.47124C3.54374 8.73159 3.12163 8.73159 2.86128 8.47124C2.60093 8.21089 2.60093 7.78878 2.86128 7.52843L7.52794 2.86177Z" fill="currentColor"/>
</svg>

