
<svg width="16" height="16" viewBox="0 0 16 16" fill="none" xmlns="http://www.w3.org/2000/svg">
<path d="M7.74661 0.739633V1.48229H6.44531V1.96531H7.74661V3.44458H8.2553V1.96531H9.58914V1.48229H8.2553V0H7.74661V0.739633Z" fill="#7099A6"/>
<path d="M3.49313 2.62365V3.7014H1.52344V4.37764H3.49313V6.56635H4.22364V4.37764H6.22291V3.7014H4.22364V1.5459H3.49313V2.62365Z" fill="#EB912C"/>
<path d="M11.747 2.62365V3.7014H9.77734V4.41085H11.747V6.56635H12.5071V4.41085H14.4768V3.7014H12.5071V1.5459H11.747V2.62365Z" fill="#59879B"/>
<path d="M7.55674 6.29448V7.50204H5.36523V8.40168H7.55674V10.8168H8.44399V8.40168H10.6355V7.50204H8.44399V5.08691H7.55674V6.29448Z" fill="#E8762C"/>
<path d="M13.9998 6.90414V7.66189H12.666V8.27473H13.9998V9.7872H14.6653V8.27473H15.9991V7.66189H14.6653V6.14941H13.9998V6.90414Z" fill="#5B6591"/>
<path d="M1.3013 6.97063V7.69517H0V8.20839H1.3013V9.65746H1.80999V8.20839L3.14382 8.16008V7.69517H1.80999V6.24609H1.3013V6.97063Z" fill="#7099A6"/>
<path d="M3.49313 10.382V11.4597H1.52344V12.1691H3.49313V14.3246H4.25321V12.1691H6.22291V11.4597H4.25321V9.3042H3.49313V10.382Z" fill="#C72035"/>
<path d="M11.747 10.382V11.4597H9.77734V12.1359H11.747V14.3246H12.5071V12.1359H14.4768V11.4597H12.5071V9.3042H11.747V10.382Z" fill="#1F447E"/>
<path d="M7.68344 13.1201V13.8748H6.34961V14.4876H7.68344V16.0001H8.34888V14.4876H9.68271V13.8748H8.34888V12.3623H7.68344V13.1201Z" fill="#5B6591"/>
</svg>
