
<svg width="32" height="32" viewBox="0 0 32 32" fill="none" xmlns="http://www.w3.org/2000/svg">
<g clip-path="url(#clip0_9894_24937)">
<rect width="32" height="32" rx="12" fill="white"/>
<rect width="32" height="32" rx="12" fill="white"/>
<rect width="32" height="32" rx="12" fill="url(#paint0_radial_9894_24937)"/>
<g clip-path="url(#clip1_9894_24937)">
<path fill-rule="evenodd" clip-rule="evenodd" d="M6.0047 8.31869C6.00398 6.74375 7.95739 6.01121 8.99244 7.19826L14.1655 13.131C13.6053 10.3108 15.1535 7.41964 17.9341 6.37992C21.0238 5.22463 24.465 6.79276 25.6203 9.88244C25.9198 10.6833 26.0365 11.5099 25.9902 12.3147L25.9953 23.3297C25.996 24.9047 24.0426 25.6372 23.0076 24.4502L17.8345 18.5174C18.3947 21.3376 16.8465 24.2288 14.0659 25.2685C10.9762 26.4238 7.53497 24.8557 6.37968 21.766C6.08024 20.9652 5.96351 20.1385 6.00981 19.3338L6.0047 8.31869ZM6.86419 19.3591L6.85908 8.3183C6.85872 7.53318 7.8325 7.168 8.34848 7.75976L15.505 15.9673C16.0492 16.4849 16.4874 17.1308 16.7681 17.8816C17.7582 20.5293 16.4143 23.4782 13.7666 24.4682C11.1189 25.4583 8.16997 24.1145 7.17994 21.4668C6.91991 20.7713 6.82088 20.0551 6.86419 19.3591ZM16.495 15.6811L23.6515 23.8887C24.1675 24.4804 25.1413 24.1152 25.1409 23.3301L25.1358 12.2894C25.1791 11.5933 25.0801 10.8771 24.8201 10.1817C23.83 7.53397 20.8811 6.19015 18.2334 7.18018C15.5857 8.1702 14.2418 11.1192 15.2319 13.7669C15.5126 14.5176 15.9508 15.1635 16.495 15.6811Z" fill="white"/>
</g>
</g>
<defs>
<radialGradient id="paint0_radial_9894_24937" cx="0" cy="0" r="1" gradientUnits="userSpaceOnUse" gradientTransform="translate(2.97369e-06 32) scale(50 50.8353)">
<stop stop-color="#01F1B7"/>
<stop offset="1" stop-color="#8676FF"/>
</radialGradient>
<clipPath id="clip0_9894_24937">
<rect width="32" height="32" rx="12" fill="white"/>
</clipPath>
<clipPath id="clip1_9894_24937">
<rect width="32" height="32" rx="4" fill="white"/>
</clipPath>
</defs>
</svg>
