
<svg width="16" height="16" viewBox="0 0 16 16" fill="none" xmlns="http://www.w3.org/2000/svg">
<g clip-path="url(#clip0_9809_19591)">
<path d="M14.6923 6.60526L8.0783 10.3246L0.999349 6.34211L0.666016 6.53509V9.42982L8.0783 13.5965L14.6923 9.86842V11.4123L8.0783 15.1316L0.999349 11.1579L0.666016 11.3421V11.8333L8.0783 16L15.4906 11.8333V8.9386L15.1485 8.75439L8.0783 12.7281L1.45549 9.00877V7.47368L8.0783 11.193L15.4906 7.02632V4.17544L15.1134 3.96491L8.0783 7.92105L1.80637 4.39474L8.0783 0.868421L13.2362 3.77193L13.7011 3.51754V3.16667L8.0783 0L0.666016 4.17544V4.62281L8.0783 8.78947L14.6923 5.0614V6.60526Z" fill="#EE3D2C"/>
</g>
<g clip-path="url(#clip1_9809_19591)">
<path d="M14.6923 6.60526L8.0783 10.3246L0.999349 6.34211L0.666016 6.53509V9.42982L8.0783 13.5965L14.6923 9.86842V11.4123L8.0783 15.1316L0.999349 11.1579L0.666016 11.3421V11.8333L8.0783 16L15.4906 11.8333V8.9386L15.1485 8.75439L8.0783 12.7281L1.45549 9.00877V7.47368L8.0783 11.193L15.4906 7.02632V4.17544L15.1134 3.96491L8.0783 7.92105L1.80637 4.39474L8.0783 0.868421L13.2362 3.77193L13.7011 3.51754V3.16667L8.0783 0L0.666016 4.17544V4.62281L8.0783 8.78947L14.6923 5.0614V6.60526Z" fill="#EE3D2C"/>
</g>
<defs>
<clipPath id="clip0_9809_19591">
<rect width="16" height="16" fill="white"/>
</clipPath>
<clipPath id="clip1_9809_19591">
<rect width="16" height="16" fill="white"/>
</clipPath>
</defs>
</svg>
