
<svg width="96" height="14" viewBox="0 0 96 14" fill="none" xmlns="http://www.w3.org/2000/svg">
<g clip-path="url(#clip0_9826_21909)">
<path d="M21.6008 5.64453C22.7244 5.64453 23.7811 6.12609 23.7811 7.67777V10.139H22.5952V7.74911C22.5952 7.07136 22.2295 6.67898 21.6409 6.67898C20.9988 6.67898 20.5707 7.15162 20.5707 7.82937V10.139H19.3848V7.82937C19.3848 5.84742 21.021 5.64453 21.6008 5.64453Z" fill="#A3A3A3"/>
<path d="M36.4766 5.64453C37.6003 5.64453 38.2958 6.34902 38.2958 7.51725V10.139H37.1099V7.65102C37.1099 7.02677 36.8155 6.67898 36.2894 6.67898C35.7187 6.67898 35.3351 7.0892 35.3351 7.71344V10.139H34.158V7.65102C34.158 7.02677 33.8638 6.67898 33.3375 6.67898C32.7668 6.67898 32.3834 7.0892 32.3834 7.71344V10.139H31.1973V5.73371H32.2229L32.3031 6.25094C32.5975 5.86748 33.0433 5.64453 33.5606 5.64453C34.167 5.64453 34.6664 5.92098 34.9339 6.37577C35.2816 5.89423 35.7989 5.64453 36.4766 5.64453Z" fill="#A3A3A3"/>
<path d="M42.451 5.63739C43.7173 5.63739 44.5912 6.58266 44.5912 7.93817C44.5912 9.29365 43.7173 10.2389 42.451 10.2389C41.8179 10.2389 41.2828 10.016 40.9261 9.60578L40.846 10.1408H39.8203V3.89844H41.0065V6.18138C41.3632 5.83358 41.8714 5.63739 42.451 5.63739ZM42.2103 9.20448C42.9147 9.20448 43.4141 8.67832 43.4141 7.93817C43.4141 7.19799 42.9147 6.67184 42.2103 6.67184C41.4969 6.67184 40.9975 7.19799 40.9975 7.93817C40.9975 8.67832 41.4969 9.20448 42.2103 9.20448Z" fill="#A3A3A3"/>
<path d="M47.961 5.64453C49.5574 5.64453 50.4402 6.69681 50.244 8.32875H46.8464C46.9267 8.88166 47.4081 9.24729 48.1215 9.24729C48.5943 9.24729 49.0668 9.08677 49.3522 8.82815L50.0121 9.5059C49.5484 9.97853 48.844 10.255 48.077 10.255C46.5879 10.255 45.6426 9.3543 45.6426 7.94531C45.6426 6.57196 46.5789 5.64453 47.961 5.64453ZM47.9967 6.61655C47.3724 6.61655 46.9534 6.95543 46.8642 7.54401H49.1293C49.0847 6.97327 48.6566 6.61655 47.9967 6.61655Z" fill="#A3A3A3"/>
<path d="M53.9178 5.64453C54.328 5.64453 54.7561 5.7783 55.0415 6.04583L54.5242 6.96435C54.2745 6.79491 54.0605 6.73248 53.8108 6.73248C53.1599 6.73248 52.7409 7.18729 52.7409 7.9899V10.139H51.5547V5.73371H52.5803L52.6783 6.28659C53.0172 5.83181 53.4362 5.64453 53.9178 5.64453Z" fill="#A3A3A3"/>
<path d="M57.7017 10.2544C56.9348 10.2544 56.257 10.0314 55.6953 9.63016L56.1857 8.79189C56.5959 9.07726 57.1935 9.2467 57.7552 9.2467C58.228 9.2467 58.5043 9.09509 58.5043 8.83648C58.5043 8.56894 58.2636 8.44409 57.6572 8.39059C56.5246 8.30141 55.8468 7.80203 55.8468 7.00835C55.8468 6.17901 56.6138 5.61719 57.7909 5.61719C58.4777 5.61719 59.0929 5.80446 59.5566 6.11658L59.0751 6.937C58.7095 6.70514 58.2993 6.59813 57.8444 6.59813C57.2915 6.59813 57.0061 6.74081 57.0061 7.00835C57.0061 7.24913 57.2292 7.37398 57.7731 7.42748C59.0484 7.55233 59.6727 7.98931 59.6727 8.83648C59.6727 9.69259 58.9145 10.2544 57.7017 10.2544Z" fill="#A3A3A3"/>
<path d="M65.2291 10.2544C64.4621 10.2544 63.7846 10.0314 63.2227 9.63016L63.7132 8.79189C64.1233 9.07726 64.7208 9.2467 65.2826 9.2467C65.7553 9.2467 66.0317 9.09509 66.0317 8.83648C66.0317 8.56894 65.791 8.44409 65.1846 8.39059C64.0521 8.30141 63.3744 7.80203 63.3744 7.00835C63.3744 6.17901 64.1413 5.61719 65.3182 5.61719C66.005 5.61719 66.6202 5.80446 67.084 6.11658L66.6024 6.937C66.2369 6.70514 65.8267 6.59813 65.3718 6.59813C64.8188 6.59813 64.5335 6.74081 64.5335 7.00835C64.5335 7.24913 64.7565 7.37398 65.3004 7.42748C66.5757 7.55233 67.2 7.98931 67.2 8.83648C67.2 9.69259 66.4419 10.2544 65.2291 10.2544Z" fill="#A3A3A3"/>
<path d="M71.1935 9.05917L71.5057 9.97769C71.14 10.1471 70.8189 10.2095 70.4265 10.2095C69.5259 10.2095 68.9284 9.72801 68.9284 8.57761V6.70489H68.1348V5.73287H68.9284V4.60922L70.1055 4.48438V5.73287H71.2917V6.70489H70.1055V8.57761C70.1055 8.97891 70.3107 9.18402 70.6674 9.18402C70.8368 9.18402 71.042 9.13051 71.1935 9.05917Z" fill="#A3A3A3"/>
<path d="M76.099 5.73481H77.1244V10.1402H76.099L76.0186 9.6051C75.6531 10.0153 75.118 10.2383 74.4938 10.2383C73.2275 10.2383 72.3535 9.29298 72.3535 7.93749C72.3535 6.58199 73.2275 5.63672 74.4938 5.63672C75.118 5.63672 75.6619 5.85966 76.0186 6.26097L76.099 5.73481ZM74.7345 9.2038C75.4479 9.2038 75.9473 8.67765 75.9473 7.93749C75.9473 7.19732 75.4479 6.67117 74.7345 6.67117C74.0301 6.67117 73.5307 7.19732 73.5307 7.93749C73.5307 8.67765 74.0301 9.2038 74.7345 9.2038Z" fill="#A3A3A3"/>
<path d="M81.4298 9.05917L81.7418 9.97769C81.3763 10.1471 81.0553 10.2095 80.6629 10.2095C79.7621 10.2095 79.1647 9.72801 79.1647 8.57761V6.70489H78.3711V5.73287H79.1647V4.60922L80.3418 4.48438V5.73287H81.5278V6.70489H80.3418V8.57761C80.3418 8.97891 80.5469 9.18402 80.9036 9.18402C81.0731 9.18402 81.2781 9.13051 81.4298 9.05917Z" fill="#A3A3A3"/>
<path d="M82.8672 10.1397V5.73438H84.0532V10.1397H82.8672Z" fill="#A3A3A3"/>
<path d="M87.7503 10.2383C86.2966 10.2383 85.3691 9.28406 85.3691 7.93749C85.3691 6.5909 86.2966 5.63672 87.7503 5.63672C89.2038 5.63672 90.1312 6.5909 90.1312 7.93749C90.1312 9.28406 89.2038 10.2383 87.7503 10.2383ZM87.7503 9.2038C88.4815 9.2038 88.9541 8.64198 88.9541 7.93749C88.9541 7.23299 88.4815 6.67117 87.7503 6.67117C87.019 6.67117 86.5463 7.23299 86.5463 7.93749C86.5463 8.64198 87.019 9.2038 87.7503 9.2038Z" fill="#A3A3A3"/>
<path d="M27.3483 10.1742C26.2247 10.1742 25.168 9.69266 25.168 8.14098V5.67969H26.3539V8.06964C26.3539 8.74739 26.7195 9.13978 27.3081 9.13978C27.9501 9.13978 28.3782 8.66713 28.3782 7.98938V5.67969H29.5644V7.98938C29.5644 9.97134 27.9279 10.1742 27.3483 10.1742Z" fill="#A3A3A3"/>
<path d="M93.6745 5.67969C92.5509 5.67969 91.4941 6.16125 91.4941 7.71293V10.1742H92.6801V7.78427C92.6801 7.10652 93.0458 6.71413 93.6344 6.71413C94.2765 6.71413 94.7046 7.18678 94.7046 7.86453V10.1742H95.8905V7.86453C95.8905 5.88257 94.2541 5.67969 93.6745 5.67969Z" fill="#A3A3A3"/>
<path d="M84.1276 4.50128C84.1276 4.86873 83.8296 5.16661 83.4622 5.16661C83.0947 5.16661 82.7969 4.86873 82.7969 4.50128C82.7969 4.13381 83.0947 3.83594 83.4622 3.83594C83.8296 3.83594 84.1276 4.13381 84.1276 4.50128Z" fill="#A3A3A3"/>
<path fill-rule="evenodd" clip-rule="evenodd" d="M0.00334423 1.64834C0.00282593 0.528723 1.39148 0.0079666 2.12729 0.851833L5.80475 5.06936C5.40651 3.06452 6.50714 1.0092 8.48385 0.270078C10.6803 -0.551202 13.1266 0.563568 13.9479 2.76C14.1608 3.3293 14.2438 3.91695 14.2108 4.48907L14.2144 12.3195C14.215 13.4391 12.8263 13.9599 12.0905 13.116L8.41306 8.89852C8.81129 10.9033 7.71064 12.9587 5.73394 13.6978C3.53753 14.5191 1.09119 13.4043 0.269912 11.2079C0.0570399 10.6386 -0.0259437 10.0509 0.00697131 9.47884L0.00334423 1.64834ZM0.614347 9.49683L0.610711 1.64806C0.610454 1.08992 1.30271 0.830323 1.66951 1.25099L6.75701 7.08565C7.14387 7.4536 7.4554 7.91278 7.65495 8.44649C8.35875 10.3287 7.40345 12.4251 5.52122 13.1289C3.639 13.8327 1.54261 12.8774 0.838811 10.9952C0.653957 10.5008 0.583558 9.99165 0.614347 9.49683ZM7.46077 6.88221L12.5483 12.7169C12.9151 13.1375 13.6073 12.8779 13.6071 12.3198L13.6035 4.47106C13.6342 3.97625 13.5639 3.46709 13.379 2.9727C12.6752 1.09048 10.5788 0.135179 8.69657 0.838976C6.81436 1.54277 5.85904 3.63916 6.56284 5.52139C6.7624 6.05508 7.07391 6.51426 7.46077 6.88221Z" fill="#A3A3A3"/>
</g>
<defs>
<clipPath id="clip0_9826_21909">
<rect width="95.8904" height="14" fill="white"/>
</clipPath>
</defs>
</svg>
