
<svg width="36" height="35" viewBox="0 0 36 35" fill="none" xmlns="http://www.w3.org/2000/svg">
<path fill-rule="evenodd" clip-rule="evenodd" d="M3.34081 6.63629C3.33975 4.39191 6.17219 3.348 7.67302 5.03962L15.1739 13.4941C14.3616 9.47519 16.6066 5.35508 20.6385 3.87343C25.1185 2.22709 30.1083 4.46176 31.7834 8.8647C32.2176 10.006 32.3869 11.184 32.3198 12.3308L32.3272 28.0278C32.3282 30.2722 29.4958 31.3161 27.9949 29.6244L20.4941 21.17C21.3063 25.1889 19.0614 29.309 15.0295 30.7906C10.5495 32.437 5.55969 30.2023 3.88452 25.7994C3.45033 24.6581 3.28107 23.4802 3.3482 22.3333L3.34081 6.63629ZM4.58707 22.3694L4.57965 6.63572C4.57912 5.51689 5.99111 4.9965 6.73928 5.83978L17.1162 17.5359C17.9053 18.2735 18.5407 19.194 18.9478 20.2639C20.3833 24.037 18.4348 28.2394 14.5956 29.6502C10.7564 31.0611 6.48044 29.146 5.0449 25.3729C4.66786 24.3819 4.52426 23.3613 4.58707 22.3694ZM18.5517 17.1281L28.9287 28.8243C29.6769 29.6676 31.0888 29.1472 31.0883 28.0283L31.0809 12.2947C31.1437 11.3028 31.0001 10.2822 30.6231 9.29112C29.1875 5.51801 24.9115 3.60301 21.0724 5.01384C17.2332 6.42468 15.2847 10.6271 16.7202 14.4002C17.1272 15.4701 17.7626 16.3905 18.5517 17.1281Z" fill="url(#paint0_linear_6211_5296)"/>
<defs>
<linearGradient id="paint0_linear_6211_5296" x1="6.84425" y1="4.62346" x2="29.6091" y2="31.6474" gradientUnits="userSpaceOnUse">
<stop stop-color="#ADA3F4"/>
<stop offset="1" stop-color="#85E0A3"/>
</linearGradient>
</defs>
</svg>
