<svg width="20" height="20" viewBox="0 0 20 20" fill="none" xmlns="http://www.w3.org/2000/svg">
<path d="M5.44937 0.833984H12.2087C12.3957 0.834024 12.575 0.908342 12.7073 1.04059L17.2307 5.56339C17.3629 5.6956 17.4372 5.87492 17.4373 6.06192V17.0523C17.4373 17.3302 17.3825 17.6053 17.2762 17.862C17.1698 18.1187 17.0139 18.3519 16.8174 18.5484C16.6209 18.7448 16.3876 18.9006 16.1309 19.0069C15.8742 19.1132 15.599 19.1678 15.3212 19.1677H5.44937C4.88833 19.1677 4.35028 18.9449 3.95357 18.5481C3.55685 18.1514 3.33398 17.6133 3.33398 17.0523V2.94942C3.33398 2.38837 3.55685 1.8503 3.95357 1.45358C4.35028 1.05686 4.88833 0.833984 5.44937 0.833984Z" fill="#FB3449"/>
<path d="M12.7017 1.03665L16.2344 4.56871L17.23 5.56438C17.2897 5.62412 17.3382 5.6941 17.3731 5.77098H13.9103C13.5362 5.77098 13.1775 5.6224 12.9131 5.35792C12.6486 5.09344 12.5 4.73473 12.5 4.3607V0.898438C12.5748 0.932413 12.643 0.979185 12.7017 1.03665Z" fill="white" fill-opacity="0.5"/>
<path d="M14.4678 10.4166H12.9443V11.8888H12.2559V8.33398H14.6582V8.89308H12.9443V9.8599H14.4678V10.4166Z" fill="white"/>
<path d="M9.19531 11.8888V8.33398H10.1157C10.2801 8.33398 10.4339 8.35433 10.5771 8.39502C10.7204 8.43408 10.8506 8.49024 10.9678 8.56348C11.0703 8.6237 11.1615 8.69776 11.2412 8.78565C11.3226 8.87192 11.3934 8.96632 11.4536 9.06886C11.5236 9.19419 11.5773 9.33254 11.6147 9.48391C11.6538 9.63528 11.6733 9.79642 11.6733 9.96732V10.2603C11.6733 10.4247 11.6554 10.5801 11.6196 10.7266C11.5838 10.8731 11.5334 11.0074 11.4683 11.1295C11.4064 11.2385 11.334 11.3394 11.251 11.4322C11.168 11.5233 11.0768 11.5998 10.9775 11.6617C10.862 11.7349 10.7342 11.7911 10.5942 11.8302C10.4559 11.8692 10.3078 11.8888 10.1499 11.8888H9.19531ZM9.88623 8.89064V11.337H10.1499C10.2345 11.337 10.3135 11.3264 10.3867 11.3052C10.46 11.2841 10.5267 11.2532 10.5869 11.2125C10.6488 11.1702 10.7041 11.1164 10.7529 11.0513C10.8034 10.9846 10.8465 10.9073 10.8823 10.8194C10.9116 10.7429 10.9336 10.6583 10.9482 10.5655C10.9645 10.4711 10.9727 10.3694 10.9727 10.2603V9.96244C10.9727 9.8599 10.9645 9.76305 10.9482 9.67191C10.9336 9.57913 10.9116 9.49449 10.8823 9.41799C10.8465 9.32685 10.7993 9.24546 10.7407 9.17385C10.6838 9.10223 10.617 9.04364 10.5405 8.99806C10.4819 8.96388 10.4168 8.93784 10.3452 8.91994C10.2752 8.9004 10.1987 8.89064 10.1157 8.89064H9.88623Z" fill="white"/>
<path d="M6.93604 10.585V11.8888H6.25V8.33398H7.46582C7.65951 8.33398 7.83447 8.36247 7.99072 8.41944C8.14697 8.47478 8.28044 8.55209 8.39111 8.65137C8.50016 8.75229 8.58398 8.87273 8.64258 9.01271C8.7028 9.15269 8.73291 9.30813 8.73291 9.47903C8.73291 9.63854 8.7028 9.78584 8.64258 9.92094C8.58398 10.056 8.50016 10.1724 8.39111 10.2701C8.28044 10.3694 8.14697 10.4467 7.99072 10.502C7.83447 10.5573 7.65951 10.585 7.46582 10.585H6.93604ZM6.93604 10.0284H7.46582C7.56348 10.0284 7.64811 10.0137 7.71973 9.98441C7.79134 9.95512 7.85156 9.91524 7.90039 9.86478C7.94759 9.81432 7.98258 9.75654 8.00537 9.69144C8.02979 9.6247 8.04199 9.55553 8.04199 9.48391C8.04199 9.4009 8.02979 9.32359 8.00537 9.25197C7.98258 9.18036 7.94759 9.11769 7.90039 9.06398C7.85156 9.01027 7.79134 8.96795 7.71973 8.93703C7.64811 8.9061 7.56348 8.89064 7.46582 8.89064H6.93604V10.0284Z" fill="white"/>
</svg>
