<svg width="16" height="16" viewBox="0 0 16 16" fill="none" xmlns="http://www.w3.org/2000/svg">
<path d="M13.3148 11.788L10.2922 10.039C10.1507 9.95753 9.98946 9.91661 9.82621 9.92076C9.66296 9.9249 9.504 9.97396 9.3668 10.0625C9.2296 10.1511 9.11946 10.2758 9.04848 10.4229C8.97749 10.5699 8.94841 10.7337 8.96442 10.8962V14.3144C8.96442 14.5492 9.05771 14.7745 9.22378 14.9405C9.38985 15.1066 9.61509 15.1999 9.84994 15.1999C10.0845 15.1995 10.3093 15.106 10.475 14.9399C10.6407 14.7739 10.7338 14.5489 10.7338 14.3144V12.3489L12.4271 13.3285C12.5281 13.3869 12.6397 13.4248 12.7555 13.44C12.8712 13.4552 12.9888 13.4474 13.1015 13.4171C13.2142 13.3868 13.3198 13.3345 13.4123 13.2633C13.5048 13.1921 13.5823 13.1033 13.6404 13.0021C13.6989 12.9011 13.7368 12.7895 13.7521 12.6737C13.7674 12.558 13.7597 12.4404 13.7295 12.3276C13.6993 12.2148 13.6471 12.1091 13.576 12.0165C13.5049 11.924 13.4159 11.8463 13.3148 11.788ZM5.60038 8.24345C5.60278 8.08757 5.5635 7.93387 5.48658 7.79827C5.40967 7.66266 5.29792 7.55007 5.1629 7.47214L2.11371 5.71688C1.91256 5.60166 1.67403 5.5706 1.45009 5.63047C1.22614 5.69035 1.03494 5.83631 0.91813 6.03654C0.860823 6.13587 0.823663 6.24553 0.808774 6.35923C0.793885 6.47293 0.801561 6.58846 0.831361 6.69919C0.861162 6.80993 0.912503 6.9137 0.982447 7.00458C1.05239 7.09545 1.13957 7.17164 1.23898 7.22879L2.99636 8.23961L1.23898 9.25187C1.13923 9.30857 1.0518 9.38459 0.981786 9.47549C0.911776 9.5664 0.860601 9.67035 0.831257 9.78128C0.80105 9.89197 0.793196 10.0076 0.808153 10.1213C0.823109 10.2351 0.860578 10.3448 0.91837 10.4439C1.03505 10.6442 1.22619 10.7902 1.45012 10.8502C1.67405 10.9101 1.91259 10.879 2.11371 10.7638L5.16314 9.00828C5.29709 8.93072 5.40813 8.81908 5.48497 8.6847C5.56181 8.55032 5.60171 8.398 5.60062 8.24321M2.68366 4.21865L5.69445 5.96095C5.86158 6.05784 6.05587 6.09725 6.24754 6.07315C6.43922 6.04905 6.6177 5.96277 6.75564 5.82752C6.84561 5.74479 6.91738 5.64425 6.96638 5.53228C7.01538 5.42032 7.04054 5.29938 7.04026 5.17716V1.68513C7.0407 1.45107 6.94817 1.22642 6.78301 1.06058C6.61785 0.89474 6.39358 0.80129 6.15953 0.800781C6.04359 0.800939 5.92881 0.823932 5.82176 0.868447C5.7147 0.912963 5.61746 0.97813 5.53559 1.06023C5.45372 1.14232 5.38882 1.23974 5.34459 1.34692C5.30037 1.4541 5.27769 1.56894 5.27785 1.68489V3.67269L3.56799 2.68323C3.46742 2.62493 3.35633 2.58706 3.24109 2.5718C3.12585 2.55653 3.00873 2.56417 2.89645 2.59427C2.78417 2.62437 2.67893 2.67634 2.58678 2.7472C2.49463 2.81806 2.41738 2.90642 2.35945 3.00721C2.24225 3.21095 2.21056 3.45284 2.27132 3.6799C2.33209 3.90696 2.48036 4.10069 2.68366 4.21865Z" fill="#29B5E8"/>
<path d="M9.67808 8.15693C9.67808 8.22532 9.63872 8.31988 9.59001 8.3698L8.36731 9.59252C8.30846 9.64528 8.23336 9.67635 8.15445 9.6806H7.84319C7.77504 9.6806 7.67905 9.64124 7.63057 9.59252L6.40643 8.3698C6.35772 8.31988 6.31836 8.22532 6.31836 8.15693V7.84567C6.31836 7.77607 6.35772 7.68152 6.40643 7.63304L7.63033 6.40888C7.67905 6.36016 7.77504 6.3208 7.84319 6.3208H8.15445C8.22284 6.3208 8.31859 6.36016 8.36731 6.40888L9.59001 7.6328C9.63872 7.68152 9.67808 7.77607 9.67808 7.84567V8.15693ZM8.58665 8.00718V7.99422C8.58665 7.9443 8.55785 7.87471 8.52233 7.83775L8.16117 7.47777C8.11837 7.43816 8.06295 7.41495 8.0047 7.41225H7.99174C7.94182 7.41225 7.87223 7.44105 7.83527 7.47801L7.4753 7.83799C7.43671 7.88111 7.4141 7.93618 7.41123 7.99398V8.00718C7.41123 8.05854 7.44003 8.12813 7.47554 8.16365L7.83551 8.52483C7.87223 8.56034 7.94182 8.58914 7.9915 8.58914H8.0047C8.05605 8.58914 8.12565 8.56034 8.16117 8.52483L8.52233 8.16365C8.55785 8.12813 8.58665 8.05854 8.58665 8.00718Z" fill="#29B5E8"/>
<path d="M10.2917 5.96154L13.3145 4.21925C13.4156 4.16116 13.5042 4.0837 13.5753 3.99131C13.6463 3.89891 13.6985 3.7934 13.7287 3.68082C13.7589 3.56823 13.7667 3.45079 13.7514 3.33522C13.7362 3.21965 13.6983 3.10822 13.6399 3.00732C13.5219 2.80358 13.3278 2.65503 13.1003 2.59428C12.8728 2.53354 12.6305 2.56557 12.4266 2.68334L10.733 3.66008V1.685C10.733 1.45036 10.6398 1.22533 10.4739 1.05942C10.308 0.893503 10.083 0.800293 9.84835 0.800293C9.61372 0.800293 9.38869 0.893503 9.22278 1.05942C9.05687 1.22533 8.96366 1.45036 8.96366 1.685V5.10815C8.94687 5.28574 8.98166 5.47053 9.07813 5.63756C9.19619 5.84136 9.39032 5.98996 9.61788 6.05071C9.84543 6.11146 10.0878 6.07939 10.2917 5.96154ZM6.29773 9.93618C6.09061 9.89655 5.87614 9.9332 5.69394 10.0394L2.68315 11.7884C2.47955 11.9068 2.33114 12.1011 2.27039 12.3286C2.20963 12.5562 2.24147 12.7986 2.35894 13.0027C2.4165 13.1039 2.49353 13.1926 2.58557 13.2638C2.67762 13.3351 2.78287 13.3873 2.89523 13.4177C3.0076 13.448 3.12486 13.4558 3.24024 13.4405C3.35562 13.4253 3.46684 13.3873 3.56747 13.3289L5.27733 12.3363V14.3147C5.27695 14.5491 5.36963 14.774 5.535 14.94C5.70037 15.1061 5.92491 15.1997 6.15926 15.2003C6.64498 15.2003 7.03974 14.8033 7.03974 14.3147V10.8114C7.04022 10.6011 6.9658 10.3976 6.82983 10.2372C6.69387 10.0768 6.50523 9.97011 6.29773 9.93618ZM15.0796 6.04482C15.0212 5.9438 14.9436 5.85527 14.851 5.78428C14.7585 5.71329 14.6528 5.66123 14.5402 5.63108C14.4275 5.60093 14.31 5.59327 14.1943 5.60855C14.0787 5.62382 13.9672 5.66173 13.8662 5.72011L10.8434 7.46121C10.7063 7.54023 10.5928 7.65452 10.5147 7.79222C10.4366 7.92992 10.3968 8.08601 10.3995 8.24428C10.3978 8.40136 10.4381 8.55603 10.5162 8.69237C10.5942 8.8287 10.7072 8.94176 10.8434 9.01991L13.8662 10.7622C14.0703 10.8794 14.3126 10.911 14.5399 10.8501C14.7673 10.7892 14.9613 10.6408 15.0796 10.4373C15.1378 10.3364 15.1756 10.2251 15.1908 10.1096C15.2059 9.99418 15.1982 9.87687 15.168 9.76441C15.1377 9.65195 15.0856 9.54655 15.0146 9.45426C14.9436 9.36196 14.8551 9.28458 14.7541 9.22654L13.0426 8.24044L14.7541 7.25434C14.8552 7.1966 14.9439 7.11943 15.0151 7.02726C15.0862 6.93509 15.1384 6.82976 15.1687 6.71733C15.1989 6.6049 15.2066 6.48759 15.1913 6.37217C15.176 6.25675 15.138 6.14549 15.0796 6.04482Z" fill="#29B5E8"/>
</svg>
